<mxfile host="app.diagrams.net" modified="2024-07-10T07:23:36.483Z" agent="Mozilla/5.0 (Macintosh; Intel Mac OS X 10_15_7) AppleWebKit/537.36 (KHTML, like Gecko) Chrome/124.0.0.0 Safari/537.36" etag="4SubJ3ciRPngWj2keUEW" version="24.6.4" type="device">
  <diagram name="Page-1" id="wOh0XrAOezgwTvj5BhI0">
    <mxGraphModel dx="1106" dy="487" grid="1" gridSize="10" guides="1" tooltips="1" connect="1" arrows="1" fold="1" page="1" pageScale="1" pageWidth="827" pageHeight="1169" math="0" shadow="0">
      <root>
        <mxCell id="0" />
        <mxCell id="1" parent="0" />
        <mxCell id="T_OMM1ZLwruatFXi8Fse-10" value="" style="image;aspect=fixed;perimeter=ellipsePerimeter;html=1;align=center;shadow=0;dashed=0;spacingTop=3;image=img/lib/active_directory/internet_cloud.svg;" vertex="1" parent="1">
          <mxGeometry x="290" y="60" width="174.61" height="110" as="geometry" />
        </mxCell>
        <mxCell id="T_OMM1ZLwruatFXi8Fse-11" value="" style="outlineConnect=0;dashed=0;verticalLabelPosition=bottom;verticalAlign=top;align=center;html=1;shape=mxgraph.aws3.route_53;fillColor=#F58536;gradientColor=none;" vertex="1" parent="1">
          <mxGeometry x="671.1" y="81.25" width="53.5" height="68.5" as="geometry" />
        </mxCell>
        <mxCell id="T_OMM1ZLwruatFXi8Fse-35" style="edgeStyle=orthogonalEdgeStyle;rounded=0;orthogonalLoop=1;jettySize=auto;html=1;" edge="1" parent="1" source="T_OMM1ZLwruatFXi8Fse-12" target="T_OMM1ZLwruatFXi8Fse-34">
          <mxGeometry relative="1" as="geometry" />
        </mxCell>
        <mxCell id="T_OMM1ZLwruatFXi8Fse-36" style="edgeStyle=orthogonalEdgeStyle;rounded=0;orthogonalLoop=1;jettySize=auto;html=1;" edge="1" parent="1" source="T_OMM1ZLwruatFXi8Fse-12" target="T_OMM1ZLwruatFXi8Fse-33">
          <mxGeometry relative="1" as="geometry" />
        </mxCell>
        <mxCell id="T_OMM1ZLwruatFXi8Fse-39" style="edgeStyle=orthogonalEdgeStyle;rounded=0;orthogonalLoop=1;jettySize=auto;html=1;" edge="1" parent="1" source="T_OMM1ZLwruatFXi8Fse-12" target="T_OMM1ZLwruatFXi8Fse-13">
          <mxGeometry relative="1" as="geometry" />
        </mxCell>
        <mxCell id="T_OMM1ZLwruatFXi8Fse-12" value="Network Load Balancer" style="outlineConnect=0;dashed=0;verticalLabelPosition=bottom;verticalAlign=top;align=center;html=1;shape=mxgraph.aws3.application_load_balancer;fillColor=#F58536;gradientColor=none;" vertex="1" parent="1">
          <mxGeometry x="329.13" y="270" width="96.35" height="80" as="geometry" />
        </mxCell>
        <mxCell id="T_OMM1ZLwruatFXi8Fse-13" value="EC2" style="sketch=0;points=[[0,0,0],[0.25,0,0],[0.5,0,0],[0.75,0,0],[1,0,0],[0,1,0],[0.25,1,0],[0.5,1,0],[0.75,1,0],[1,1,0],[0,0.25,0],[0,0.5,0],[0,0.75,0],[1,0.25,0],[1,0.5,0],[1,0.75,0]];outlineConnect=0;fontColor=#232F3E;fillColor=#ED7100;strokeColor=#ffffff;dashed=0;verticalLabelPosition=bottom;verticalAlign=top;align=center;html=1;fontSize=12;fontStyle=0;aspect=fixed;shape=mxgraph.aws4.resourceIcon;resIcon=mxgraph.aws4.auto_scaling2;" vertex="1" parent="1">
          <mxGeometry x="190" y="460" width="78" height="78" as="geometry" />
        </mxCell>
        <mxCell id="T_OMM1ZLwruatFXi8Fse-14" value="Auto-scaling-groups" style="outlineConnect=0;dashed=0;verticalLabelPosition=bottom;verticalAlign=top;align=center;html=1;shape=mxgraph.aws3.ec2;fillColor=#F58534;gradientColor=none;" vertex="1" parent="1">
          <mxGeometry x="50" y="633.5" width="56.5" height="73" as="geometry" />
        </mxCell>
        <mxCell id="T_OMM1ZLwruatFXi8Fse-21" value="" style="rounded=0;whiteSpace=wrap;html=1;fillColor=none;glass=1;" vertex="1" parent="1">
          <mxGeometry x="20" y="390" width="920" height="430" as="geometry" />
        </mxCell>
        <mxCell id="T_OMM1ZLwruatFXi8Fse-25" style="edgeStyle=orthogonalEdgeStyle;rounded=0;orthogonalLoop=1;jettySize=auto;html=1;entryX=0.29;entryY=0.5;entryDx=0;entryDy=0;entryPerimeter=0;" edge="1" parent="1" source="T_OMM1ZLwruatFXi8Fse-10" target="T_OMM1ZLwruatFXi8Fse-11">
          <mxGeometry relative="1" as="geometry" />
        </mxCell>
        <mxCell id="T_OMM1ZLwruatFXi8Fse-26" value="ounass.swapnilkhedekar.com" style="text;html=1;align=center;verticalAlign=middle;whiteSpace=wrap;rounded=0;" vertex="1" parent="1">
          <mxGeometry x="526" y="81.25" width="60" height="30" as="geometry" />
        </mxCell>
        <mxCell id="T_OMM1ZLwruatFXi8Fse-27" value="Route53" style="text;html=1;align=center;verticalAlign=middle;whiteSpace=wrap;rounded=0;" vertex="1" parent="1">
          <mxGeometry x="664.6" y="149.75" width="60" height="30" as="geometry" />
        </mxCell>
        <mxCell id="T_OMM1ZLwruatFXi8Fse-29" style="edgeStyle=orthogonalEdgeStyle;rounded=0;orthogonalLoop=1;jettySize=auto;html=1;entryX=0.5;entryY=0;entryDx=0;entryDy=0;entryPerimeter=0;" edge="1" parent="1" source="T_OMM1ZLwruatFXi8Fse-10" target="T_OMM1ZLwruatFXi8Fse-12">
          <mxGeometry relative="1" as="geometry" />
        </mxCell>
        <mxCell id="T_OMM1ZLwruatFXi8Fse-30" value="EC2" style="sketch=0;points=[[0,0,0],[0.25,0,0],[0.5,0,0],[0.75,0,0],[1,0,0],[0,1,0],[0.25,1,0],[0.5,1,0],[0.75,1,0],[1,1,0],[0,0.25,0],[0,0.5,0],[0,0.75,0],[1,0.25,0],[1,0.5,0],[1,0.75,0]];outlineConnect=0;fontColor=#232F3E;fillColor=#ED7100;strokeColor=#ffffff;dashed=0;verticalLabelPosition=bottom;verticalAlign=top;align=center;html=1;fontSize=12;fontStyle=0;aspect=fixed;shape=mxgraph.aws4.resourceIcon;resIcon=mxgraph.aws4.auto_scaling2;" vertex="1" parent="1">
          <mxGeometry x="160" y="631" width="78" height="78" as="geometry" />
        </mxCell>
        <mxCell id="T_OMM1ZLwruatFXi8Fse-31" value="EC2" style="sketch=0;points=[[0,0,0],[0.25,0,0],[0.5,0,0],[0.75,0,0],[1,0,0],[0,1,0],[0.25,1,0],[0.5,1,0],[0.75,1,0],[1,1,0],[0,0.25,0],[0,0.5,0],[0,0.75,0],[1,0.25,0],[1,0.5,0],[1,0.75,0]];outlineConnect=0;fontColor=#232F3E;fillColor=#ED7100;strokeColor=#ffffff;dashed=0;verticalLabelPosition=bottom;verticalAlign=top;align=center;html=1;fontSize=12;fontStyle=0;aspect=fixed;shape=mxgraph.aws4.resourceIcon;resIcon=mxgraph.aws4.auto_scaling2;" vertex="1" parent="1">
          <mxGeometry x="268.31" y="631" width="78" height="78" as="geometry" />
        </mxCell>
        <mxCell id="T_OMM1ZLwruatFXi8Fse-32" value="EC2" style="sketch=0;points=[[0,0,0],[0.25,0,0],[0.5,0,0],[0.75,0,0],[1,0,0],[0,1,0],[0.25,1,0],[0.5,1,0],[0.75,1,0],[1,1,0],[0,0.25,0],[0,0.5,0],[0,0.75,0],[1,0.25,0],[1,0.5,0],[1,0.75,0]];outlineConnect=0;fontColor=#232F3E;fillColor=#ED7100;strokeColor=#ffffff;dashed=0;verticalLabelPosition=bottom;verticalAlign=top;align=center;html=1;fontSize=12;fontStyle=0;aspect=fixed;shape=mxgraph.aws4.resourceIcon;resIcon=mxgraph.aws4.auto_scaling2;" vertex="1" parent="1">
          <mxGeometry x="370" y="631" width="78" height="78" as="geometry" />
        </mxCell>
        <mxCell id="T_OMM1ZLwruatFXi8Fse-33" value="EC2" style="sketch=0;points=[[0,0,0],[0.25,0,0],[0.5,0,0],[0.75,0,0],[1,0,0],[0,1,0],[0.25,1,0],[0.5,1,0],[0.75,1,0],[1,1,0],[0,0.25,0],[0,0.5,0],[0,0.75,0],[1,0.25,0],[1,0.5,0],[1,0.75,0]];outlineConnect=0;fontColor=#232F3E;fillColor=#ED7100;strokeColor=#ffffff;dashed=0;verticalLabelPosition=bottom;verticalAlign=top;align=center;html=1;fontSize=12;fontStyle=0;aspect=fixed;shape=mxgraph.aws4.resourceIcon;resIcon=mxgraph.aws4.auto_scaling2;" vertex="1" parent="1">
          <mxGeometry x="490" y="460" width="78" height="78" as="geometry" />
        </mxCell>
        <mxCell id="T_OMM1ZLwruatFXi8Fse-34" value="EC2" style="sketch=0;points=[[0,0,0],[0.25,0,0],[0.5,0,0],[0.75,0,0],[1,0,0],[0,1,0],[0.25,1,0],[0.5,1,0],[0.75,1,0],[1,1,0],[0,0.25,0],[0,0.5,0],[0,0.75,0],[1,0.25,0],[1,0.5,0],[1,0.75,0]];outlineConnect=0;fontColor=#232F3E;fillColor=#ED7100;strokeColor=#ffffff;dashed=0;verticalLabelPosition=bottom;verticalAlign=top;align=center;html=1;fontSize=12;fontStyle=0;aspect=fixed;shape=mxgraph.aws4.resourceIcon;resIcon=mxgraph.aws4.auto_scaling2;" vertex="1" parent="1">
          <mxGeometry x="338" y="460" width="78" height="78" as="geometry" />
        </mxCell>
        <mxCell id="T_OMM1ZLwruatFXi8Fse-40" value="" style="rounded=1;whiteSpace=wrap;html=1;fillColor=none;strokeColor=default;" vertex="1" parent="1">
          <mxGeometry x="110" y="432" width="710" height="140" as="geometry" />
        </mxCell>
        <mxCell id="T_OMM1ZLwruatFXi8Fse-41" value="" style="rounded=0;whiteSpace=wrap;html=1;fillColor=none;strokeColor=default;glass=1;" vertex="1" parent="1">
          <mxGeometry x="110" y="610" width="710" height="170" as="geometry" />
        </mxCell>
        <mxCell id="T_OMM1ZLwruatFXi8Fse-42" value="Auto-scaling-groups" style="outlineConnect=0;dashed=0;verticalLabelPosition=bottom;verticalAlign=top;align=center;html=1;shape=mxgraph.aws3.ec2;fillColor=#F58534;gradientColor=none;" vertex="1" parent="1">
          <mxGeometry x="50" y="470" width="56.5" height="73" as="geometry" />
        </mxCell>
        <mxCell id="T_OMM1ZLwruatFXi8Fse-47" value="NAT GW" style="sketch=0;points=[[0,0,0],[0.25,0,0],[0.5,0,0],[0.75,0,0],[1,0,0],[0,1,0],[0.25,1,0],[0.5,1,0],[0.75,1,0],[1,1,0],[0,0.25,0],[0,0.5,0],[0,0.75,0],[1,0.25,0],[1,0.5,0],[1,0.75,0]];outlineConnect=0;fontColor=#232F3E;fillColor=#ED7100;strokeColor=#ffffff;dashed=0;verticalLabelPosition=bottom;verticalAlign=top;align=center;html=1;fontSize=12;fontStyle=0;aspect=fixed;shape=mxgraph.aws4.resourceIcon;resIcon=mxgraph.aws4.auto_scaling2;" vertex="1" parent="1">
          <mxGeometry x="630" y="460" width="78" height="78" as="geometry" />
        </mxCell>
        <mxCell id="T_OMM1ZLwruatFXi8Fse-78" style="edgeStyle=orthogonalEdgeStyle;rounded=0;orthogonalLoop=1;jettySize=auto;html=1;" edge="1" parent="1" source="T_OMM1ZLwruatFXi8Fse-48" target="T_OMM1ZLwruatFXi8Fse-10">
          <mxGeometry relative="1" as="geometry">
            <Array as="points">
              <mxPoint x="866" y="230" />
              <mxPoint x="430" y="230" />
            </Array>
          </mxGeometry>
        </mxCell>
        <mxCell id="T_OMM1ZLwruatFXi8Fse-48" value="Internet Gw" style="sketch=0;points=[[0,0,0],[0.25,0,0],[0.5,0,0],[0.75,0,0],[1,0,0],[0,1,0],[0.25,1,0],[0.5,1,0],[0.75,1,0],[1,1,0],[0,0.25,0],[0,0.5,0],[0,0.75,0],[1,0.25,0],[1,0.5,0],[1,0.75,0]];outlineConnect=0;fontColor=#232F3E;fillColor=#ED7100;strokeColor=#ffffff;dashed=0;verticalLabelPosition=bottom;verticalAlign=top;align=center;html=1;fontSize=12;fontStyle=0;aspect=fixed;shape=mxgraph.aws4.resourceIcon;resIcon=mxgraph.aws4.auto_scaling2;" vertex="1" parent="1">
          <mxGeometry x="842" y="390" width="48" height="48" as="geometry" />
        </mxCell>
        <mxCell id="T_OMM1ZLwruatFXi8Fse-49" value="" style="rounded=0;whiteSpace=wrap;html=1;fillColor=none;strokeColor=default;glass=1;" vertex="1" parent="1">
          <mxGeometry x="146" y="616" width="620" height="130" as="geometry" />
        </mxCell>
        <mxCell id="T_OMM1ZLwruatFXi8Fse-50" value="Private subnet" style="text;html=1;align=center;verticalAlign=middle;whiteSpace=wrap;rounded=0;" vertex="1" parent="1">
          <mxGeometry x="108" y="771" width="80" height="30" as="geometry" />
        </mxCell>
        <mxCell id="T_OMM1ZLwruatFXi8Fse-51" value="Public subnet" style="text;html=1;align=center;verticalAlign=middle;whiteSpace=wrap;rounded=0;" vertex="1" parent="1">
          <mxGeometry x="106" y="409" width="80" height="30" as="geometry" />
        </mxCell>
        <mxCell id="T_OMM1ZLwruatFXi8Fse-53" value="Ingress" style="aspect=fixed;sketch=0;html=1;dashed=0;whitespace=wrap;verticalLabelPosition=bottom;verticalAlign=top;fillColor=#2875E2;strokeColor=#ffffff;points=[[0.005,0.63,0],[0.1,0.2,0],[0.9,0.2,0],[0.5,0,0],[0.995,0.63,0],[0.72,0.99,0],[0.5,1,0],[0.28,0.99,0]];shape=mxgraph.kubernetes.icon2;kubernetesLabel=1;prIcon=pod" vertex="1" parent="1">
          <mxGeometry x="464.61" y="650" width="40" height="48" as="geometry" />
        </mxCell>
        <mxCell id="T_OMM1ZLwruatFXi8Fse-72" value="" style="edgeStyle=orthogonalEdgeStyle;rounded=0;orthogonalLoop=1;jettySize=auto;html=1;" edge="1" parent="1" source="T_OMM1ZLwruatFXi8Fse-55" target="T_OMM1ZLwruatFXi8Fse-56">
          <mxGeometry relative="1" as="geometry" />
        </mxCell>
        <mxCell id="T_OMM1ZLwruatFXi8Fse-55" value="service" style="aspect=fixed;sketch=0;html=1;dashed=0;whitespace=wrap;verticalLabelPosition=bottom;verticalAlign=top;fillColor=#2875E2;strokeColor=#ffffff;points=[[0.005,0.63,0],[0.1,0.2,0],[0.9,0.2,0],[0.5,0,0],[0.995,0.63,0],[0.72,0.99,0],[0.5,1,0],[0.28,0.99,0]];shape=mxgraph.kubernetes.icon2;kubernetesLabel=1;prIcon=pod" vertex="1" parent="1">
          <mxGeometry x="550" y="647" width="40" height="48" as="geometry" />
        </mxCell>
        <mxCell id="T_OMM1ZLwruatFXi8Fse-67" style="edgeStyle=orthogonalEdgeStyle;rounded=0;orthogonalLoop=1;jettySize=auto;html=1;" edge="1" parent="1" source="T_OMM1ZLwruatFXi8Fse-56" target="T_OMM1ZLwruatFXi8Fse-59">
          <mxGeometry relative="1" as="geometry" />
        </mxCell>
        <mxCell id="T_OMM1ZLwruatFXi8Fse-69" style="edgeStyle=orthogonalEdgeStyle;rounded=0;orthogonalLoop=1;jettySize=auto;html=1;" edge="1" parent="1" source="T_OMM1ZLwruatFXi8Fse-56" target="T_OMM1ZLwruatFXi8Fse-57">
          <mxGeometry relative="1" as="geometry" />
        </mxCell>
        <mxCell id="T_OMM1ZLwruatFXi8Fse-56" value="Deployment" style="aspect=fixed;sketch=0;html=1;dashed=0;whitespace=wrap;verticalLabelPosition=bottom;verticalAlign=top;fillColor=#2875E2;strokeColor=#ffffff;points=[[0.005,0.63,0],[0.1,0.2,0],[0.9,0.2,0],[0.5,0,0],[0.995,0.63,0],[0.72,0.99,0],[0.5,1,0],[0.28,0.99,0]];shape=mxgraph.kubernetes.icon2;kubernetesLabel=1;prIcon=pod" vertex="1" parent="1">
          <mxGeometry x="632.1" y="647" width="40" height="48" as="geometry" />
        </mxCell>
        <mxCell id="T_OMM1ZLwruatFXi8Fse-57" value="" style="aspect=fixed;sketch=0;html=1;dashed=0;whitespace=wrap;verticalLabelPosition=bottom;verticalAlign=top;fillColor=#2875E2;strokeColor=#ffffff;points=[[0.005,0.63,0],[0.1,0.2,0],[0.9,0.2,0],[0.5,0,0],[0.995,0.63,0],[0.72,0.99,0],[0.5,1,0],[0.28,0.99,0]];shape=mxgraph.kubernetes.icon2;kubernetesLabel=1;prIcon=pod" vertex="1" parent="1">
          <mxGeometry x="720" y="688" width="40" height="48" as="geometry" />
        </mxCell>
        <mxCell id="T_OMM1ZLwruatFXi8Fse-81" style="edgeStyle=orthogonalEdgeStyle;rounded=0;orthogonalLoop=1;jettySize=auto;html=1;" edge="1" parent="1" source="T_OMM1ZLwruatFXi8Fse-58" target="T_OMM1ZLwruatFXi8Fse-61">
          <mxGeometry relative="1" as="geometry" />
        </mxCell>
        <mxCell id="T_OMM1ZLwruatFXi8Fse-58" value="" style="aspect=fixed;sketch=0;html=1;dashed=0;whitespace=wrap;verticalLabelPosition=bottom;verticalAlign=top;fillColor=#2875E2;strokeColor=#ffffff;points=[[0.005,0.63,0],[0.1,0.2,0],[0.9,0.2,0],[0.5,0,0],[0.995,0.63,0],[0.72,0.99,0],[0.5,1,0],[0.28,0.99,0]];shape=mxgraph.kubernetes.icon2;kubernetesLabel=1;prIcon=pod" vertex="1" parent="1">
          <mxGeometry x="720" y="648" width="40" height="48" as="geometry" />
        </mxCell>
        <mxCell id="T_OMM1ZLwruatFXi8Fse-59" value="" style="aspect=fixed;sketch=0;html=1;dashed=0;whitespace=wrap;verticalLabelPosition=bottom;verticalAlign=top;fillColor=#2875E2;strokeColor=#ffffff;points=[[0.005,0.63,0],[0.1,0.2,0],[0.9,0.2,0],[0.5,0,0],[0.995,0.63,0],[0.72,0.99,0],[0.5,1,0],[0.28,0.99,0]];shape=mxgraph.kubernetes.icon2;kubernetesLabel=1;prIcon=pod" vertex="1" parent="1">
          <mxGeometry x="720" y="610" width="40" height="48" as="geometry" />
        </mxCell>
        <mxCell id="T_OMM1ZLwruatFXi8Fse-64" style="edgeStyle=orthogonalEdgeStyle;rounded=0;orthogonalLoop=1;jettySize=auto;html=1;" edge="1" parent="1" source="T_OMM1ZLwruatFXi8Fse-61" target="T_OMM1ZLwruatFXi8Fse-62">
          <mxGeometry relative="1" as="geometry" />
        </mxCell>
        <mxCell id="T_OMM1ZLwruatFXi8Fse-61" value="Amazon S3" style="sketch=0;outlineConnect=0;fontColor=#232F3E;gradientColor=none;strokeColor=#ffffff;fillColor=#232F3E;dashed=0;verticalLabelPosition=middle;verticalAlign=bottom;align=center;html=1;whiteSpace=wrap;fontSize=10;fontStyle=1;spacing=3;shape=mxgraph.aws4.productIcon;prIcon=mxgraph.aws4.s3;" vertex="1" parent="1">
          <mxGeometry x="1030" y="617" width="80" height="110" as="geometry" />
        </mxCell>
        <mxCell id="T_OMM1ZLwruatFXi8Fse-62" value="Glacier(after 90 days)" style="sketch=0;points=[[0,0,0],[0.25,0,0],[0.5,0,0],[0.75,0,0],[1,0,0],[0,1,0],[0.25,1,0],[0.5,1,0],[0.75,1,0],[1,1,0],[0,0.25,0],[0,0.5,0],[0,0.75,0],[1,0.25,0],[1,0.5,0],[1,0.75,0]];outlineConnect=0;fontColor=#232F3E;fillColor=#7AA116;strokeColor=#ffffff;dashed=0;verticalLabelPosition=bottom;verticalAlign=top;align=center;html=1;fontSize=12;fontStyle=0;aspect=fixed;shape=mxgraph.aws4.resourceIcon;resIcon=mxgraph.aws4.glacier;" vertex="1" parent="1">
          <mxGeometry x="1031" y="390" width="78" height="78" as="geometry" />
        </mxCell>
        <mxCell id="T_OMM1ZLwruatFXi8Fse-76" style="edgeStyle=orthogonalEdgeStyle;rounded=0;orthogonalLoop=1;jettySize=auto;html=1;" edge="1" parent="1" source="T_OMM1ZLwruatFXi8Fse-66" target="T_OMM1ZLwruatFXi8Fse-48">
          <mxGeometry relative="1" as="geometry" />
        </mxCell>
        <mxCell id="T_OMM1ZLwruatFXi8Fse-66" value="VPN gw" style="sketch=0;points=[[0,0,0],[0.25,0,0],[0.5,0,0],[0.75,0,0],[1,0,0],[0,1,0],[0.25,1,0],[0.5,1,0],[0.75,1,0],[1,1,0],[0,0.25,0],[0,0.5,0],[0,0.75,0],[1,0.25,0],[1,0.5,0],[1,0.75,0]];outlineConnect=0;fontColor=#232F3E;fillColor=#ED7100;strokeColor=#ffffff;dashed=0;verticalLabelPosition=bottom;verticalAlign=top;align=center;html=1;fontSize=12;fontStyle=0;aspect=fixed;shape=mxgraph.aws4.resourceIcon;resIcon=mxgraph.aws4.auto_scaling2;" vertex="1" parent="1">
          <mxGeometry x="720" y="460" width="78" height="78" as="geometry" />
        </mxCell>
        <mxCell id="T_OMM1ZLwruatFXi8Fse-68" style="edgeStyle=orthogonalEdgeStyle;rounded=0;orthogonalLoop=1;jettySize=auto;html=1;entryX=0.25;entryY=0.51;entryDx=0;entryDy=0;entryPerimeter=0;" edge="1" parent="1" source="T_OMM1ZLwruatFXi8Fse-56" target="T_OMM1ZLwruatFXi8Fse-58">
          <mxGeometry relative="1" as="geometry" />
        </mxCell>
        <mxCell id="T_OMM1ZLwruatFXi8Fse-71" style="edgeStyle=orthogonalEdgeStyle;rounded=0;orthogonalLoop=1;jettySize=auto;html=1;entryX=0.25;entryY=0.563;entryDx=0;entryDy=0;entryPerimeter=0;" edge="1" parent="1" source="T_OMM1ZLwruatFXi8Fse-53" target="T_OMM1ZLwruatFXi8Fse-55">
          <mxGeometry relative="1" as="geometry" />
        </mxCell>
        <mxCell id="T_OMM1ZLwruatFXi8Fse-73" value="kops cluster/k8s" style="text;html=1;align=center;verticalAlign=middle;whiteSpace=wrap;rounded=0;" vertex="1" parent="1">
          <mxGeometry x="146" y="736" width="90" height="30" as="geometry" />
        </mxCell>
        <mxCell id="T_OMM1ZLwruatFXi8Fse-77" style="edgeStyle=orthogonalEdgeStyle;rounded=0;orthogonalLoop=1;jettySize=auto;html=1;entryX=0;entryY=0.5;entryDx=0;entryDy=0;entryPerimeter=0;" edge="1" parent="1" source="T_OMM1ZLwruatFXi8Fse-47" target="T_OMM1ZLwruatFXi8Fse-48">
          <mxGeometry relative="1" as="geometry" />
        </mxCell>
        <mxCell id="T_OMM1ZLwruatFXi8Fse-79" value="Public Internet" style="text;html=1;align=center;verticalAlign=middle;whiteSpace=wrap;rounded=0;" vertex="1" parent="1">
          <mxGeometry x="332" y="100.5" width="90" height="30" as="geometry" />
        </mxCell>
        <mxCell id="T_OMM1ZLwruatFXi8Fse-83" value="Ansible" style="sketch=0;points=[[0,0,0],[0.25,0,0],[0.5,0,0],[0.75,0,0],[1,0,0],[0,1,0],[0.25,1,0],[0.5,1,0],[0.75,1,0],[1,1,0],[0,0.25,0],[0,0.5,0],[0,0.75,0],[1,0.25,0],[1,0.5,0],[1,0.75,0]];outlineConnect=0;fontColor=#232F3E;fillColor=#DD344C;strokeColor=#ffffff;dashed=0;verticalLabelPosition=bottom;verticalAlign=top;align=center;html=1;fontSize=12;fontStyle=0;aspect=fixed;shape=mxgraph.aws4.resourceIcon;resIcon=mxgraph.aws4.amplify;" vertex="1" parent="1">
          <mxGeometry x="188" y="915" width="78" height="78" as="geometry" />
        </mxCell>
        <mxCell id="T_OMM1ZLwruatFXi8Fse-84" value="Kops/kubernetes" style="shape=image;html=1;verticalAlign=top;verticalLabelPosition=bottom;labelBackgroundColor=#ffffff;imageAspect=0;aspect=fixed;image=https://cdn3.iconfinder.com/data/icons/travelling-icon-set/800/helm-128.png" vertex="1" parent="1">
          <mxGeometry x="320" y="887" width="128" height="128" as="geometry" />
        </mxCell>
        <mxCell id="T_OMM1ZLwruatFXi8Fse-85" value="Docker" style="image;sketch=0;aspect=fixed;html=1;points=[];align=center;fontSize=12;image=img/lib/mscae/Docker.svg;" vertex="1" parent="1">
          <mxGeometry x="504.61" y="912" width="100" height="81" as="geometry" />
        </mxCell>
      </root>
    </mxGraphModel>
  </diagram>
</mxfile>
